<?xml version="1.0" encoding="UTF-8"?>
<svg version="1.1" xmlns="http://www.w3.org/2000/svg" width="1024" height="1024">
<path d="M0 0 C1.20294238 -0.00576172 1.20294238 -0.00576172 2.43018663 -0.01163983 C3.3054697 -0.01077335 4.18075278 -0.00990687 5.08255959 -0.00901413 C6.01687738 -0.01198525 6.95119518 -0.01495637 7.91382563 -0.01801753 C11.05208004 -0.0267058 14.1902963 -0.02821288 17.32856178 -0.02970505 C19.57554646 -0.03433306 21.82253035 -0.0393577 24.06951332 -0.04475021 C30.17898831 -0.05787627 36.28845231 -0.06431938 42.39793921 -0.06876087 C46.21321034 -0.07169077 50.02847847 -0.07579538 53.84374809 -0.08026505 C64.4090042 -0.0923727 74.97425769 -0.10275559 85.53952026 -0.10614014 C86.21545338 -0.1063597 86.8913865 -0.10657927 87.58780245 -0.10680549 C88.26534038 -0.10702377 88.94287831 -0.10724204 89.6409477 -0.10746694 C91.01386984 -0.1079104 92.38679199 -0.10835696 93.75971413 -0.10880661 C94.7812365 -0.10913875 94.7812365 -0.10913875 95.82339568 -0.10947761 C106.86071241 -0.11342648 117.89796315 -0.13088435 128.93525438 -0.15416613 C140.26943938 -0.1778811 151.60358011 -0.19008404 162.93779433 -0.19150805 C169.30063662 -0.19255733 175.66338579 -0.19849151 182.02620506 -0.21632767 C188.00978221 -0.23277459 193.99319591 -0.23498024 199.97678757 -0.22618866 C202.17380332 -0.22541652 204.37082775 -0.22978417 206.5678215 -0.23964691 C209.56536177 -0.25231521 212.56231861 -0.2465173 215.55985451 -0.23606491 C216.86608696 -0.24814952 216.86608696 -0.24814952 218.19870794 -0.26047826 C223.18668235 -0.21975612 226.62616872 0.35873744 230.94819069 3.13142776 C234.4047514 8.54348475 234.38761302 15.40715683 234.26069069 21.63142776 C234.26391335 22.42162308 234.267136 23.21181839 234.27045631 24.02595901 C234.14548956 37.90862915 234.14548956 37.90862915 230.37301064 41.72488785 C227.06843269 43.64173977 224.05065894 43.57126096 220.33393288 43.56380081 C219.19188896 43.57908829 219.19188896 43.57908829 218.02677345 43.5946846 C215.51612942 43.62482194 213.00586687 43.63408147 210.49506569 43.64314651 C208.75199045 43.65999269 207.00892735 43.67814285 205.26587868 43.6975441 C200.68252294 43.74505704 196.09921647 43.77485798 191.51569557 43.80098343 C186.83684495 43.83078244 182.15816412 43.87731503 177.47944069 43.92244339 C168.30244615 44.0084912 159.12541668 44.07582991 149.94819069 44.13142776 C150.57327019 45.08925659 151.19834969 46.04708542 151.84237099 47.03393936 C152.66694049 48.30486203 153.49134913 49.57588907 154.31562233 50.84700394 C154.7271077 51.47660774 155.13859306 52.10621155 155.56254768 52.75489426 C158.43738334 57.19782209 160.63060346 61.42864884 162.38569069 66.44392776 C162.62392555 67.11053421 162.86216042 67.77714066 163.10761452 68.4639473 C164.37702321 72.10436524 165.38353844 75.7274693 166.13569069 79.50642776 C166.56445039 83.37435797 166.56445039 83.37435797 169.94819069 85.13142776 C172.51986188 85.43273386 172.51986188 85.43273386 175.44184303 85.38679886 C176.56666084 85.39375778 177.69147865 85.40071671 178.85038185 85.40788651 C180.06601814 85.4068895 181.28165443 85.40589249 182.53412819 85.40486526 C185.09923672 85.42515384 187.66434086 85.44600461 190.22944069 85.46736526 C194.2805452 85.49211253 198.33158526 85.50728343 202.382761 85.51228714 C206.28761851 85.51827261 210.19193805 85.55555614 214.09662819 85.59236526 C215.30821602 85.58731979 216.51980385 85.58227432 217.76810646 85.57707596 C218.89922859 85.5903392 220.03035072 85.60360245 221.19574928 85.61726761 C222.18819649 85.62011765 223.18064369 85.62296768 224.20316505 85.62590408 C227.70292329 86.27041926 229.39422118 87.70510897 231.94819069 90.13142776 C234.22243787 94.67992213 233.13321604 101.01259599 233.13569069 106.00642776 C233.14793678 107.29935745 233.16018288 108.59228714 233.17280006 109.92439651 C233.17473366 111.1657637 233.17666725 112.40713089 233.17865944 113.68611526 C233.18276833 114.82548538 233.18687721 115.9648555 233.19111061 117.13875198 C232.95137004 120.09225943 232.60230645 121.70309632 230.94819069 124.13142776 C227.07408879 126.71416236 223.75100992 126.50108535 219.24897194 126.58064651 C218.38112572 126.60238434 217.5132795 126.62412216 216.6191349 126.64651871 C214.77409085 126.69047856 212.92892798 126.72966857 211.08368874 126.76448441 C208.31607794 126.81785959 205.54932597 126.88837953 202.78217506 126.96150589 C192.10646712 127.21317767 181.59317509 127.02047812 170.94819069 126.13142776 C170.61819069 127.45142776 170.28819069 128.77142776 169.94819069 130.13142776 C169.61819069 129.14142776 169.28819069 128.15142776 168.94819069 127.13142776 C168.28819069 126.80142776 167.62819069 126.47142776 166.94819069 126.13142776 C166.80123756 126.82365433 166.65428444 127.51588089 166.50287819 128.22908401 C160.67013589 153.67190817 146.22930841 175.61845256 125.19819069 191.19392776 C124.49863258 191.71414505 123.79907448 192.23436234 123.07831764 192.77034378 C117.61693724 196.76808176 112.05659004 200.19827869 105.94819069 203.13142776 C105.08194069 203.56841995 104.21569069 204.00541214 103.32319069 204.45564651 C88.4623374 211.64847231 73.17237617 213.39583582 56.94819069 215.13142776 C57.41507301 215.59250931 57.88195534 216.05359085 58.36298561 216.52864456 C61.43988573 219.58314687 64.47488557 222.61748122 67.26069069 225.94392776 C70.02437098 229.15476532 72.93438665 232.15409942 75.94819069 235.13142776 C87.32363343 246.40282682 87.32363343 246.40282682 89.94819069 252.13142776 C90.60819069 252.13142776 91.26819069 252.13142776 91.94819069 252.13142776 C93.49897194 253.70564651 93.49897194 253.70564651 95.26069069 255.81892776 C97.38463753 258.3294507 99.50320413 260.73966198 101.88569069 263.00642776 C103.94819069 265.13142776 103.94819069 265.13142776 103.94819069 267.13142776 C104.60819069 267.13142776 105.26819069 267.13142776 105.94819069 267.13142776 C105.94819069 267.79142776 105.94819069 268.45142776 105.94819069 269.13142776 C106.60819069 269.13142776 107.26819069 269.13142776 107.94819069 269.13142776 C109.42865944 270.60017776 109.42865944 270.60017776 111.13569069 272.63142776 C111.75572975 273.35974808 112.37576881 274.08806839 113.01459694 274.83845901 C113.65268288 275.5951387 114.29076881 276.35181839 114.94819069 277.13142776 C116.15283204 278.53044862 117.36103746 279.92641038 118.57319069 281.31892776 C119.10170631 281.93123245 119.63022194 282.54353714 120.17475319 283.17439651 C122.8253329 286.09937545 125.64651091 288.84515873 128.45356178 291.61897659 C130.07823008 293.22582724 131.70072417 294.83485425 133.32319069 296.44392776 C133.86201881 296.97437698 134.40084694 297.5048262 134.95600319 298.05134964 C138.51560087 301.58975923 141.84900741 305.26685322 145.13129616 309.06282425 C148.26697764 312.63291685 151.55176202 316.06115887 154.82319069 319.50642776 C164.11487246 329.34757729 164.11487246 329.34757729 168.26069069 333.88142776 C168.9168235 334.59814651 169.57295631 335.31486526 170.24897194 336.05330276 C173.14915557 339.600194 174.92755382 341.97576286 175.01069069 346.63142776 C173.72575119 350.86416963 171.68943441 352.94637052 167.94819069 355.13142776 C164.3646946 355.74666214 164.3646946 355.74666214 160.42475319 355.72517776 C159.36724358 355.72523819 159.36724358 355.72523819 158.28837013 355.72529984 C156.8041176 355.71996456 155.31986387 355.70246693 153.835886 355.67341995 C151.58596583 355.63166485 149.33905728 355.63234976 147.08881569 355.63924026 C138.1997906 355.60077594 129.94708886 355.51518711 123.07319069 349.06892776 C122.42092506 348.46306839 121.76865944 347.85720901 121.09662819 347.23299026 C117.00965953 343.23519183 112.95999985 339.20464217 108.94819069 335.13142776 C108.19022194 334.41341995 107.43225319 333.69541214 106.65131569 332.95564651 C104.94819069 331.13142776 104.94819069 331.13142776 104.94819069 329.13142776 C104.28819069 329.13142776 103.62819069 329.13142776 102.94819069 329.13142776 C101.57319069 327.73299026 101.57319069 327.73299026 99.94819069 325.75642776 C96.18597057 321.30221367 92.08760787 317.27459244 87.88959694 313.23299026 C85.94819069 311.13142776 85.94819069 311.13142776 85.94819069 309.13142776 C85.28819069 309.13142776 84.62819069 309.13142776 83.94819069 309.13142776 C82.46772194 307.62752151 82.46772194 307.62752151 80.76069069 305.56892776 C78.41539311 302.80604096 76.03989664 300.1646302 73.44819069 297.63142776 C71.01429337 295.2408961 68.7346351 292.78096514 66.51069069 290.19392776 C63.54213513 286.74721561 60.40739965 283.54031917 57.13569069 280.38142776 C55.25832285 278.45042085 53.51023329 276.47789558 51.75678444 274.43611526 C47.01903435 268.97853078 41.82660031 263.99547633 36.64936256 258.95955276 C35.91395241 258.23509964 35.17854225 257.51064651 34.42084694 256.76424026 C33.41936623 255.78801712 33.41936623 255.78801712 32.39765358 254.7920723 C30.94819069 253.13142776 30.94819069 253.13142776 30.94819069 251.13142776 C29.95819069 250.80142776 28.96819069 250.47142776 27.94819069 250.13142776 C27.94819069 249.47142776 27.94819069 248.81142776 27.94819069 248.13142776 C26.95819069 247.80142776 25.96819069 247.47142776 24.94819069 247.13142776 C23.47553444 245.63533401 23.47553444 245.63533401 21.88569069 243.69392776 C18.14750852 239.25784463 14.06642574 235.25419951 9.88959694 231.23299026 C7.94819069 229.13142776 7.94819069 229.13142776 7.94819069 227.13142776 C7.28819069 227.13142776 6.62819069 227.13142776 5.94819069 227.13142776 C4.53803444 225.73299026 4.53803444 225.73299026 2.88569069 223.75642776 C-0.67547802 219.5355057 -4.42161276 215.52310855 -8.23149681 211.52595901 C-12.11523854 206.41708846 -11.23510283 199.71459422 -11.23930931 193.56892776 C-11.2515554 192.62340042 -11.2638015 191.67787308 -11.27641869 190.70369339 C-11.27835228 189.79168167 -11.28028587 188.87966995 -11.28227806 187.94002151 C-11.28638695 187.11300735 -11.29049583 186.28599319 -11.29472923 185.433918 C-11.02297892 182.85816203 -10.44960102 181.30535022 -9.05180931 179.13142776 C0.66676898 172.65237557 20.24964622 176.09590519 31.58100319 176.22737503 C56.30715392 176.49476443 76.87600123 174.72423031 96.94819069 159.13142776 C97.63397194 158.62869339 98.31975319 158.12595901 99.02631569 157.60799026 C108.47981636 150.24107308 115.20492948 138.3612114 118.94819069 127.13142776 C117.98104873 127.13061061 117.98104873 127.13061061 116.99436855 127.12977695 C101.30346148 127.11480748 85.61290564 127.07235433 69.92217159 126.9993372 C62.33421364 126.96468878 54.74643732 126.93933189 47.15839577 126.93587112 C40.5443762 126.93283099 33.93068013 126.91233436 27.31678551 126.87090319 C23.81490132 126.84957537 20.31347697 126.83697108 16.81152725 126.84527397 C12.9014439 126.85421736 8.99218673 126.82418619 5.08222389 126.79085159 C3.34189888 126.80379005 3.34189888 126.80379005 1.56641579 126.8169899 C-6.27581805 126.70463602 -6.27581805 126.70463602 -10.26698875 123.75644302 C-12.27662375 120.80078313 -12.72124386 119.18587647 -12.82915306 115.63924026 C-12.88619408 114.08656448 -12.88619408 114.08656448 -12.94438744 112.50252151 C-12.95921165 111.43131058 -12.97403587 110.36009964 -12.98930931 109.25642776 C-13.03120384 108.1929512 -13.07309837 107.12947464 -13.11626244 106.03377151 C-13.48109209 92.98097729 -13.48109209 92.98097729 -9.21643639 87.9785347 C-4.33720403 85.1306592 0.34492801 85.56105559 5.89863014 85.58552933 C7.10880302 85.57519165 8.31897591 85.56485397 9.56582069 85.55420303 C12.8756067 85.52979393 16.18455103 85.52293749 19.49436784 85.52392292 C22.9564519 85.5207907 26.41836829 85.49516612 29.88036537 85.4719429 C36.4321506 85.43140285 42.98383635 85.41104696 49.53572768 85.39796901 C56.99649215 85.38209213 64.4570875 85.34367369 71.91775382 85.30337572 C87.26118248 85.22100417 102.60457757 85.16689502 117.94819069 85.13142776 C117.01644732 83.39145471 116.08077755 81.65358393 115.14350319 79.91658401 C114.62288307 78.94857864 114.10226295 77.98057327 113.56586647 76.98323441 C109.90020871 70.08791544 109.90020871 70.08791544 104.08100319 65.29158401 C101.48861724 63.88144001 100.13847287 61.93462975 98.32319069 59.65584183 C88.07592304 48.29505717 69.26768469 45.43031665 54.94819069 44.13142776 C49.99472169 43.89378555 45.0550611 43.87691742 40.09662819 43.89314651 C38.73998186 43.88710378 37.38334175 43.87948603 36.02671242 43.87039566 C30.34799845 43.8338078 24.66950076 43.8148133 18.99067116 43.82600784 C15.48471729 43.83186395 11.97957218 43.81360902 8.47378349 43.78011894 C6.51014851 43.76837686 4.54641171 43.78345863 2.58280373 43.79907608 C-7.2672256 43.69014521 -7.2672256 43.69014521 -10.3528347 40.76692581 C-12.32684074 37.70479114 -12.7397116 35.88360558 -12.86430931 32.25642776 C-12.90684837 31.12205276 -12.94938744 29.98767776 -12.99321556 28.81892776 C-13.02221947 26.99361526 -13.02221947 26.99361526 -13.05180931 25.13142776 C-13.10208275 23.83205276 -13.15235619 22.53267776 -13.20415306 21.19392776 C-13.51027246 8.85119374 -13.51027246 8.85119374 -10.05180931 3.13142776 C-7.05109966 0.13071811 -4.11665815 0.00742739 0 0 Z " fill="#8B70FE" transform="translate(269.0518093109131,267.8685722351074)"/>
<path d="M0 0 C2.87191832 1.96931542 3.05859799 3.94674688 3.80193329 7.23592949 C4.42524478 10.89605142 4.46591338 14.486315 4.44628906 18.19165039 C4.45154602 19.43474724 4.45154602 19.43474724 4.45690918 20.70295715 C4.46564753 23.41794432 4.45990598 26.13266685 4.453125 28.84765625 C4.45447379 30.7475947 4.45641611 32.64753282 4.45892334 34.54747009 C4.4618638 38.5190664 4.45761124 42.49057243 4.44824219 46.4621582 C4.43684053 51.54169673 4.44341852 56.62102404 4.45538712 61.70055485 C4.46262821 65.62029093 4.46030758 69.53997727 4.45513153 73.45971489 C4.45380166 75.33233096 4.45541942 77.20495161 4.46009064 79.07756233 C4.46519378 81.69774399 4.45739298 84.31758754 4.44628906 86.93774414 C4.45033752 87.70417236 4.45438599 88.47060059 4.45855713 89.26025391 C4.42173128 93.97268082 3.85093358 98.02843331 2.1875 102.5 C-0.82655835 105.1121839 -2.69562146 106.40288013 -6.6875 106.75 C-7.739375 106.62625 -7.739375 106.62625 -8.8125 106.5 C-9.1425 107.16 -9.4725 107.82 -9.8125 108.5 C-10.23273437 108.05914062 -10.65296875 107.61828125 -11.0859375 107.1640625 C-12.78332307 105.52812075 -14.51176548 104.23014652 -16.4375 102.875 C-21.38145165 99.23595752 -25.5703607 94.91889511 -29.8125 90.5 C-31.15122221 92.83036829 -32.48334741 95.16417775 -33.8125 97.5 C-34.17472656 98.1290625 -34.53695312 98.758125 -34.91015625 99.40625 C-38.00306654 104.85815967 -40.8126141 110.44176272 -43.60012817 116.05375671 C-47.55440899 124.01187432 -51.61809551 131.91278863 -55.6875 139.8125 C-56.28010117 140.96360764 -56.28010117 140.96360764 -56.88467407 142.13796997 C-63.9098559 155.78179811 -70.99104777 169.39103562 -78.25390625 182.91015625 C-79.20030425 184.67185003 -80.14670088 186.43354453 -81.09301758 188.19528198 C-81.73837664 189.3966355 -82.38388402 190.59790936 -83.02954102 191.79910278 C-87.76693369 200.61692868 -92.41351701 209.47745251 -97 218.375 C-101.68339145 227.45928848 -106.47983118 236.46833871 -111.40820312 245.421875 C-115.03407882 252.02493834 -118.5347506 258.68644181 -122 265.375 C-123.47647267 268.20803844 -124.95553255 271.03969375 -126.43701172 273.87011719 C-127.3218559 275.56190659 -128.20392176 277.25515356 -129.08251953 278.95019531 C-138.73677177 297.47475726 -138.73677177 297.47475726 -147.8125 300.5 C-149.79296875 300.73828125 -149.79296875 300.73828125 -152 300.8125 C-152.71542969 300.84988281 -153.43085937 300.88726563 -154.16796875 300.92578125 C-161.94004027 299.6744433 -167.12075629 294.75522524 -172.375 289.25 C-173.03048828 288.57904297 -173.68597656 287.90808594 -174.36132812 287.21679688 C-178.14962063 283.31496913 -181.8333934 279.34261597 -185.34375 275.1875 C-187.43106196 272.78931179 -189.70377822 270.59717057 -191.97216797 268.37182617 C-193.74238762 266.57131223 -195.39495579 264.71644377 -197.0390625 262.80078125 C-201.44267055 257.73324819 -206.0799604 252.89705213 -210.734375 248.06054688 C-211.69730469 247.04637695 -211.69730469 247.04637695 -212.6796875 246.01171875 C-213.25831543 245.40803467 -213.83694336 244.80435059 -214.43310547 244.18237305 C-215.8125 242.5 -215.8125 242.5 -216.8125 239.5 C-217.8025 239.17 -218.7925 238.84 -219.8125 238.5 C-221.5 236.9375 -221.5 236.9375 -222.8125 235.5 C-223.22193848 236.82028198 -223.22193848 236.82028198 -223.63964844 238.16723633 C-224.7312161 241.26902445 -225.99744368 243.94818426 -227.578125 246.82421875 C-228.40787842 248.34644043 -228.40787842 248.34644043 -229.25439453 249.89941406 C-229.85106934 250.98448242 -230.44774414 252.06955078 -231.0625 253.1875 C-232.33777432 255.52897643 -233.61169608 257.87111467 -234.8828125 260.21484375 C-235.20881439 260.81539581 -235.53481628 261.41594788 -235.87069702 262.03469849 C-239.31368726 268.3946061 -242.6288758 274.81934208 -245.9375 281.25 C-250.78592212 290.66736296 -255.74932626 300.00859527 -260.90673828 309.26074219 C-265.3818495 317.14252875 -265.3818495 317.14252875 -268.8125 325.5 C-268.4825 326.16 -268.1525 326.82 -267.8125 327.5 C-268.8025 327.83 -269.7925 328.16 -270.8125 328.5 C-272.31351066 330.63429392 -272.31351066 330.63429392 -273.67578125 333.3359375 C-274.22572754 334.36686523 -274.77567383 335.39779297 -275.34228516 336.45996094 C-275.93058105 337.58692383 -276.51887695 338.71388672 -277.125 339.875 C-277.74165527 341.03805664 -278.35831055 342.20111328 -278.99365234 343.39941406 C-283.96349388 352.78350994 -288.82973822 362.2225903 -293.69604492 371.66064453 C-297.82339517 379.64917636 -302.08021604 387.55682737 -306.41455078 395.43457031 C-309.96983908 401.91141411 -313.41280613 408.44029179 -316.8125 415 C-320.87542045 422.82572366 -324.98729049 430.6219817 -329.1875 438.375 C-329.66316406 439.25994141 -330.13882813 440.14488281 -330.62890625 441.05664062 C-339.92575164 458.12689876 -339.92575164 458.12689876 -346.8125 461.5 C-352.09593321 462.86977898 -356.84505648 462.82740361 -361.8125 460.5 C-367.99873662 456.19495814 -373.48808408 451.07608235 -378.66796875 445.6171875 C-380.56629878 443.74306205 -382.50998822 441.99783902 -384.5234375 440.25 C-388.86641728 436.47903222 -393.06895607 432.57394867 -397.25 428.625 C-397.99499756 427.92318604 -398.73999512 427.22137207 -399.50756836 426.49829102 C-404.06135602 422.19525272 -408.52491418 417.81892029 -412.92578125 413.359375 C-415.36590589 410.95461449 -417.93349735 408.72789315 -420.53125 406.49609375 C-423.99760504 403.46303309 -427.3643156 400.32425817 -430.74194336 397.19311523 C-433.49706987 394.63918572 -436.25605458 392.09034976 -439.03515625 389.5625 C-444.27074224 384.79744573 -449.4113285 379.99827971 -454.2890625 374.86328125 C-455.72017086 373.27771643 -455.72017086 373.27771643 -457.8125 373.5 C-459.14231093 374.99109234 -460.3994873 376.54706714 -461.625 378.125 C-465.38563789 382.83339154 -469.31318698 387.29509776 -473.4375 391.6875 C-477.41613033 395.92841384 -481.35102497 400.18447108 -485.1484375 404.58984375 C-487.12790126 406.86204511 -489.1583317 409.08459872 -491.1875 411.3125 C-494.24108867 414.68940982 -497.15679205 418.13217132 -500 421.6875 C-504.90253486 427.75320218 -510.23508037 433.38164977 -515.58203125 439.0546875 C-518.52282579 442.17775922 -521.37649177 445.36272092 -524.17578125 448.61328125 C-526.94118892 451.80109009 -529.78568356 454.91782319 -532.6171875 458.046875 C-534.59234101 460.25398604 -536.51791472 462.4947025 -538.4375 464.75 C-547.40367905 475.02982853 -547.40367905 475.02982853 -554.046875 475.73828125 C-559.91492073 475.91140682 -564.34696055 475.55752062 -568.8125 471.5 C-571.67960497 468.0798494 -573.52455897 464.88211696 -574.4375 460.5 C-572.78920571 452.5881874 -566.7562926 447.07597673 -561.4140625 441.34765625 C-558.97640575 438.67941035 -556.69559499 435.94556593 -554.4375 433.125 C-550.63115697 428.40888078 -546.60477723 423.97154499 -542.4675293 419.54956055 C-538.25929701 415.03290625 -534.24084947 410.37577834 -530.24951172 405.66748047 C-526.95897717 401.79962136 -523.58241989 398.03154284 -520.125 394.3125 C-516.79534837 390.72982998 -513.6126514 387.07551699 -510.5625 383.25 C-506.10169601 377.69806409 -501.24077133 372.58149483 -496.33886719 367.4230957 C-491.89347858 362.72106958 -487.76603404 357.89043372 -483.734375 352.828125 C-481.43815878 350.04652974 -478.95952949 347.54552821 -476.35546875 345.0546875 C-474.86652913 343.55443948 -473.64003345 342.00201311 -472.375 340.3125 C-468.13177365 335.65530035 -463.58468451 333.32374878 -457.25 333 C-448.98072758 333.46567575 -443.90875799 338.99593545 -438.14453125 344.37890625 C-435.88999532 346.51118557 -435.88999532 346.51118557 -433.51171875 348.15234375 C-432.95097656 348.59707031 -432.39023437 349.04179688 -431.8125 349.5 C-431.8125 350.16 -431.8125 350.82 -431.8125 351.5 C-431.22984375 351.75394531 -430.6471875 352.00789063 -430.046875 352.26953125 C-427.57061967 353.63320333 -426.00729374 355.14225203 -424.0625 357.1875 C-420.86129986 360.54337998 -417.46193124 363.57163272 -413.96191406 366.60668945 C-409.68849574 370.37092833 -405.58956551 374.32466455 -401.4609375 378.24609375 C-400.45160156 379.19935547 -400.45160156 379.19935547 -399.421875 380.171875 C-398.82342773 380.7400293 -398.22498047 381.30818359 -397.60839844 381.89355469 C-395.8004878 383.57070795 -395.8004878 383.57070795 -393.58691406 385.08300781 C-393.00135742 385.55061523 -392.41580078 386.01822266 -391.8125 386.5 C-391.8125 387.16 -391.8125 387.82 -391.8125 388.5 C-391.22984375 388.75394531 -390.6471875 389.00789063 -390.046875 389.26953125 C-387.57061967 390.63320333 -386.00729374 392.14225203 -384.0625 394.1875 C-380.82140325 397.51231511 -377.48042614 400.6110714 -373.9609375 403.63671875 C-370.62588363 406.52912002 -367.37295138 409.51181817 -364.109375 412.484375 C-362.07437041 414.27019535 -360.00349251 415.91203295 -357.8125 417.5 C-357.40902344 416.66984375 -357.00554687 415.8396875 -356.58984375 414.984375 C-352.10376626 405.84635253 -347.3751401 396.84487759 -342.5625 387.875 C-342.2395697 387.27308838 -341.9166394 386.67117676 -341.58392334 386.05102539 C-337.22204075 377.92805855 -332.81028471 369.83312239 -328.375 361.75 C-324.8001857 355.23152866 -321.35474268 348.67782314 -318.08227539 342.00317383 C-314.81646129 335.39726692 -311.30980904 328.92290244 -307.8125 322.4375 C-302.30433481 312.22271149 -296.92135666 301.9511411 -291.625 291.625 C-287.10532973 282.81556473 -282.53221466 274.04586109 -277.75 265.375 C-273.25493474 257.21963381 -268.88872755 249.0027094 -264.59622192 240.73931885 C-263.91067069 239.42002788 -263.22373398 238.10145586 -262.53536987 236.78363037 C-261.5765581 234.94649519 -260.62335169 233.10656755 -259.671875 231.265625 C-259.11983398 230.20118164 -258.56779297 229.13673828 -257.99902344 228.04003906 C-256.67142377 225.66524308 -256.67142377 225.66524308 -256.8125 223.5 C-256.15266113 222.85381714 -256.15266113 222.85381714 -255.47949219 222.19458008 C-253.43051052 220.11168879 -252.41802869 218.01293235 -251.140625 215.38671875 C-250.64046875 214.38576172 -250.1403125 213.38480469 -249.625 212.35351562 C-248.59103699 210.25844807 -247.56486154 208.15951746 -246.546875 206.05664062 C-242.78216061 198.57042924 -239.20887136 193.30565252 -231.3125 190.0625 C-224.43711883 188.95752803 -219.4457363 190.56171976 -213.8125 194.5 C-210.50866271 196.98470408 -207.55605288 199.2117514 -205.46875 202.828125 C-203.42432101 206.12621328 -200.84050788 208.64476814 -198.0625 211.3125 C-193.9462686 215.33958457 -190.00922151 219.42142023 -186.28125 223.81640625 C-184.87931781 225.42340831 -183.41391286 226.90020851 -181.875 228.375 C-179.8125 230.5 -179.8125 230.5 -179.8125 232.5 C-179.1525 232.5 -178.4925 232.5 -177.8125 232.5 C-176.47265625 233.86328125 -176.47265625 233.86328125 -174.875 235.8125 C-170.16684136 241.36317123 -164.9930297 246.39371356 -159.8125 251.5 C-158.81183528 252.49933484 -157.81168452 253.49918519 -156.8125 254.5 C-156.26948242 253.43378418 -155.72646484 252.36756836 -155.16699219 251.26904297 C-136.85893072 215.34281042 -136.85893072 215.34281042 -128.97949219 201.10302734 C-125.30959007 194.45959676 -121.79479073 187.74348363 -118.3125 181 C-114.34580598 173.3190592 -110.30448699 165.6921543 -106.125 158.125 C-98.75253384 144.75160191 -91.86980791 131.12376203 -84.90992737 117.53302002 C-80.61441692 109.15148321 -76.23699368 100.81409191 -71.8125 92.5 C-71.22855469 91.40196045 -71.22855469 91.40196045 -70.6328125 90.28173828 C-68.36447929 86.01842084 -66.09101024 81.75788645 -63.8125 77.5 C-67.49814084 75.04420303 -67.49814084 75.04420303 -71.8125 74.5 C-71.8125 73.84 -71.8125 73.18 -71.8125 72.5 C-72.6375 72.273125 -73.4625 72.04625 -74.3125 71.8125 C-79.34672871 69.92466423 -83.99291557 67.31958443 -87.8125 63.5 C-88.21875 61.58203125 -88.21875 61.58203125 -88.3125 59.3125 C-88.38984375 58.20841797 -88.38984375 58.20841797 -88.46875 57.08203125 C-86.61000131 49.76874026 -79.4474945 45.54401163 -73.4375 41.75 C-71.81699237 40.69901979 -70.19721342 39.64691526 -68.578125 38.59375 C-67.77181641 38.07296875 -66.96550781 37.5521875 -66.13476562 37.015625 C-62.77502276 34.82289122 -59.48077627 32.54082502 -56.1875 30.25 C-48.33173612 24.81077254 -40.37668866 19.52260104 -32.41162109 14.24511719 C-26.87048771 10.56700669 -21.38860498 6.82770517 -15.98193359 2.95410156 C-10.551624 -0.68566031 -6.52157789 -1.15939163 0 0 Z " fill="#8A70FE" transform="translate(808.8125,287.5)"/>
<path d="M0 0 C0 3.96130371 -1.34877125 4.82914401 -4 7.6875 C-4.7425 8.49574219 -5.485 9.30398438 -6.25 10.13671875 C-6.8275 10.75160156 -7.405 11.36648438 -8 12 C-8 8.03869629 -6.65122875 7.17085599 -4 4.3125 C-3.2575 3.50425781 -2.515 2.69601562 -1.75 1.86328125 C-1.1725 1.24839844 -0.595 0.63351562 0 0 Z " fill="#866CF4" transform="translate(301,668)"/>
<path d="M0 0 C4.875 0.875 4.875 0.875 6 2 C8.32817964 2.36760731 10.6618385 2.70241581 13 3 C13 3.33 13 3.66 13 4 C7.66404866 4.27131956 4.38616179 4.4266889 0 1 C0 0.67 0 0.34 0 0 Z " fill="#8B71EF" transform="translate(242,759)"/>
<path d="M0 0 C3.63 0 7.26 0 11 0 C11 0.33 11 0.66 11 1 C7.37 1 3.74 1 0 1 C0 0.67 0 0.34 0 0 Z " fill="#977EFA" transform="translate(336,352)"/>
<path d="M0 0 C2.31 0 4.62 0 7 0 C7 0.33 7 0.66 7 1 C4.69 1 2.38 1 0 1 C0 0.67 0 0.34 0 0 Z " fill="#9A80FC" transform="translate(448,352)"/>
<path d="M0 0 C2.31 0 4.62 0 7 0 C7 0.33 7 0.66 7 1 C4.69 1 2.38 1 0 1 C0 0.67 0 0.34 0 0 Z " fill="#977FF9" transform="translate(304,352)"/>
<path d="M0 0 C1.65 0 3.3 0 5 0 C5 0.33 5 0.66 5 1 C3.35 1 1.7 1 0 1 C0 0.67 0 0.34 0 0 Z " fill="#977EFB" transform="translate(360,352)"/>
<path d="M0 0 C4 1 4 1 4 1 Z " fill="#9A82F2" transform="translate(656,589)"/>
<path d="M0 0 C4 1 4 1 4 1 Z " fill="#9980F9" transform="translate(441,352)"/>
<path d="M0 0 C4 1 4 1 4 1 Z " fill="#987EFB" transform="translate(377,352)"/>
<path d="M0 0 C4 1 4 1 4 1 Z " fill="#987FFA" transform="translate(371,352)"/>
<path d="M0 0 C4 1 4 1 4 1 Z " fill="#987EFB" transform="translate(329,352)"/>
<path d="M0 0 C4 1 4 1 4 1 Z " fill="#997FFB" transform="translate(321,352)"/>
<path d="M0 0 C0.99 0.33 1.98 0.66 3 1 C2.01 1 1.02 1 0 1 C0 0.67 0 0.34 0 0 Z " fill="#987DFE" transform="translate(346,317)"/>
<path d="M0 0 C0.33 0.66 0.66 1.32 1 2 C0.34 1.67 -0.32 1.34 -1 1 C-0.67 0.67 -0.34 0.34 0 0 Z " fill="#9980F4" transform="translate(435,741)"/>
<path d="M0 0 C0.66 0.66 1.32 1.32 2 2 C1.34 2 0.68 2 0 2 C0 1.34 0 0.68 0 0 Z " fill="#9A7EFA" transform="translate(332,683)"/>
<path d="M0 0 C0.33 0.66 0.66 1.32 1 2 C0.34 1.67 -0.32 1.34 -1 1 C-0.67 0.67 -0.34 0.34 0 0 Z " fill="#9B80FB" transform="translate(541,611)"/>
<path d="M0 0 C0.99 0.495 0.99 0.495 2 1 C1.01 1.495 1.01 1.495 0 2 C0 1.34 0 0.68 0 0 Z " fill="#9A7FFC" transform="translate(361,477)"/>
<path d="M0 0 C0.66 0 1.32 0 2 0 C1.67 0.66 1.34 1.32 1 2 C0.67 1.34 0.34 0.68 0 0 Z " fill="#9B81FB" transform="translate(731,470)"/>
<path d="M0 0 C3 1 3 1 3 1 Z " fill="#9A81FA" transform="translate(336,440)"/>
<path d="M0 0 C3 1 3 1 3 1 Z " fill="#997FFA" transform="translate(352,352)"/>
<path d="M0 0 C3 1 3 1 3 1 Z " fill="#987FFA" transform="translate(312,352)"/>
<path d="" fill="#9A81F4" transform="translate(0,0)"/>
<path d="" fill="#9980F7" transform="translate(0,0)"/>
<path d="" fill="#987EF8" transform="translate(0,0)"/>
<path d="M0 0 C2 1 2 1 2 1 Z " fill="#9C81FB" transform="translate(351,619)"/>
<path d="M0 0 C2 1 2 1 2 1 Z " fill="#997EFC" transform="translate(356,582)"/>
<path d="" fill="#9A7EFB" transform="translate(0,0)"/>
<path d="" fill="#9D82FA" transform="translate(0,0)"/>
<path d="M0 0 C2 1 2 1 2 1 Z " fill="#9A80FB" transform="translate(330,554)"/>
<path d="" fill="#987DFC" transform="translate(0,0)"/>
<path d="" fill="#A084F9" transform="translate(0,0)"/>
<path d="" fill="#9C83F7" transform="translate(0,0)"/>
<path d="M0 0 C2 1 2 1 2 1 Z " fill="#9B80FB" transform="translate(356,479)"/>
<path d="" fill="#9B84F8" transform="translate(0,0)"/>
<path d="" fill="#9B83FD" transform="translate(0,0)"/>
<path d="M0 0 C2 1 2 1 2 1 Z " fill="#9A80F7" transform="translate(481,352)"/>
<path d="M0 0 C2 1 2 1 2 1 Z " fill="#9B82FD" transform="translate(384,352)"/>
<path d="M0 0 C2 1 2 1 2 1 Z " fill="#987FFA" transform="translate(368,352)"/>
<path d="M0 0 C2 1 2 1 2 1 Z " fill="#977FFB" transform="translate(357,352)"/>
<path d="M0 0 C2 1 2 1 2 1 Z " fill="#997EFA" transform="translate(349,352)"/>
<path d="M0 0 C2 1 2 1 2 1 Z " fill="#9981FB" transform="translate(284,352)"/>
<path d="M0 0 C2 1 2 1 2 1 Z " fill="#9981FA" transform="translate(280,352)"/>
<path d="M0 0 C2 1 2 1 2 1 Z " fill="#9C82F8" transform="translate(274,352)"/>
<path d="M0 0 C2 1 2 1 2 1 Z " fill="#9C85F7" transform="translate(267,352)"/>
<path d="" fill="#987DFC" transform="translate(0,0)"/>
<path d="" fill="#9A7EFD" transform="translate(0,0)"/>
<path d="M0 0 C2 1 2 1 2 1 Z " fill="#9780FB" transform="translate(352,319)"/>
<path d="" fill="#997EFE" transform="translate(0,0)"/>
<path d="M0 0 C2 1 2 1 2 1 Z " fill="#9D86EB" transform="translate(800,285)"/>
<path d="" fill="#626066" transform="translate(0,0)"/>
<path d="" fill="#78767B" transform="translate(0,0)"/>
<path d="" fill="#7D7C7B" transform="translate(0,0)"/>
<path d="" fill="#8D839B" transform="translate(0,0)"/>
<path d="" fill="#9A83EC" transform="translate(0,0)"/>
<path d="" fill="#9B82EA" transform="translate(0,0)"/>
<path d="" fill="#9881F0" transform="translate(0,0)"/>
<path d="" fill="#9F84EC" transform="translate(0,0)"/>
<path d="" fill="#9980F4" transform="translate(0,0)"/>
<path d="" fill="#A088F2" transform="translate(0,0)"/>
<path d="" fill="#9C81F8" transform="translate(0,0)"/>
<path d="" fill="#9E85F2" transform="translate(0,0)"/>
<path d="" fill="#9A7FF6" transform="translate(0,0)"/>
<path d="" fill="#9780F4" transform="translate(0,0)"/>
<path d="" fill="#977DF5" transform="translate(0,0)"/>
<path d="" fill="#977FF4" transform="translate(0,0)"/>
<path d="" fill="#9C83F1" transform="translate(0,0)"/>
<path d="" fill="#9B7FF3" transform="translate(0,0)"/>
<path d="" fill="#9A81F9" transform="translate(0,0)"/>
<path d="" fill="#9B7EF9" transform="translate(0,0)"/>
<path d="" fill="#9C7FF9" transform="translate(0,0)"/>
<path d="" fill="#9A80F5" transform="translate(0,0)"/>
<path d="" fill="#987DF6" transform="translate(0,0)"/>
<path d="" fill="#9A7FFA" transform="translate(0,0)"/>
<path d="" fill="#9C7EFA" transform="translate(0,0)"/>
<path d="" fill="#9A7DFB" transform="translate(0,0)"/>
<path d="" fill="#997EF7" transform="translate(0,0)"/>
<path d="" fill="#9A81FC" transform="translate(0,0)"/>
<path d="" fill="#9D82F3" transform="translate(0,0)"/>
<path d="" fill="#9B81FD" transform="translate(0,0)"/>
<path d="" fill="#9D84F8" transform="translate(0,0)"/>
<path d="" fill="#977EFA" transform="translate(0,0)"/>
<path d="" fill="#9A7EF9" transform="translate(0,0)"/>
<path d="" fill="#987EFD" transform="translate(0,0)"/>
<path d="" fill="#9C7FFC" transform="translate(0,0)"/>
<path d="" fill="#9980F4" transform="translate(0,0)"/>
<path d="" fill="#9587BA" transform="translate(0,0)"/>
<path d="" fill="#9882F9" transform="translate(0,0)"/>
<path d="" fill="#9B7FFE" transform="translate(0,0)"/>
<path d="" fill="#9A82FE" transform="translate(0,0)"/>
<path d="" fill="#967FFA" transform="translate(0,0)"/>
<path d="" fill="#9B7FF5" transform="translate(0,0)"/>
<path d="" fill="#9B81FB" transform="translate(0,0)"/>
<path d="" fill="#9C80FD" transform="translate(0,0)"/>
<path d="" fill="#9D81F7" transform="translate(0,0)"/>
<path d="" fill="#9D83F9" transform="translate(0,0)"/>
<path d="" fill="#9980FA" transform="translate(0,0)"/>
<path d="" fill="#977FFC" transform="translate(0,0)"/>
<path d="" fill="#9A82F8" transform="translate(0,0)"/>
<path d="" fill="#9B81F9" transform="translate(0,0)"/>
<path d="" fill="#997EFA" transform="translate(0,0)"/>
<path d="" fill="#9A80F6" transform="translate(0,0)"/>
<path d="" fill="#997EFE" transform="translate(0,0)"/>
<path d="" fill="#9C80F8" transform="translate(0,0)"/>
<path d="" fill="#9C81F9" transform="translate(0,0)"/>
<path d="" fill="#9085A7" transform="translate(0,0)"/>
<path d="" fill="#9F84FA" transform="translate(0,0)"/>
<path d="" fill="#9E84FA" transform="translate(0,0)"/>
<path d="" fill="#9B7FFA" transform="translate(0,0)"/>
<path d="" fill="#9C82F9" transform="translate(0,0)"/>
<path d="" fill="#9B83F9" transform="translate(0,0)"/>
<path d="" fill="#987EF8" transform="translate(0,0)"/>
<path d="" fill="#9D7FFA" transform="translate(0,0)"/>
<path d="" fill="#9A80FC" transform="translate(0,0)"/>
<path d="" fill="#9A7CF8" transform="translate(0,0)"/>
<path d="" fill="#9A81FB" transform="translate(0,0)"/>
<path d="" fill="#997CFA" transform="translate(0,0)"/>
<path d="" fill="#9980FC" transform="translate(0,0)"/>
<path d="" fill="#987DF7" transform="translate(0,0)"/>
<path d="" fill="#9E82F9" transform="translate(0,0)"/>
<path d="" fill="#997CF9" transform="translate(0,0)"/>
<path d="" fill="#9A7FFC" transform="translate(0,0)"/>
<path d="" fill="#9B81F5" transform="translate(0,0)"/>
<path d="" fill="#9981FB" transform="translate(0,0)"/>
<path d="" fill="#9D82FC" transform="translate(0,0)"/>
<path d="" fill="#9C80FB" transform="translate(0,0)"/>
<path d="" fill="#9880FA" transform="translate(0,0)"/>
<path d="" fill="#9C80FC" transform="translate(0,0)"/>
<path d="" fill="#9D83FB" transform="translate(0,0)"/>
<path d="" fill="#9A80FB" transform="translate(0,0)"/>
<path d="" fill="#9B83F9" transform="translate(0,0)"/>
<path d="" fill="#997EFC" transform="translate(0,0)"/>
<path d="" fill="#9B80FC" transform="translate(0,0)"/>
<path d="" fill="#997FFB" transform="translate(0,0)"/>
<path d="" fill="#9A7FF8" transform="translate(0,0)"/>
<path d="" fill="#9D82F8" transform="translate(0,0)"/>
<path d="" fill="#A182FC" transform="translate(0,0)"/>
<path d="" fill="#9A7DFB" transform="translate(0,0)"/>
<path d="" fill="#9A7FFB" transform="translate(0,0)"/>
<path d="" fill="#A083F9" transform="translate(0,0)"/>
<path d="" fill="#9980F7" transform="translate(0,0)"/>
<path d="" fill="#977EFB" transform="translate(0,0)"/>
<path d="" fill="#9D80F9" transform="translate(0,0)"/>
<path d="" fill="#9A7EFB" transform="translate(0,0)"/>
<path d="" fill="#A085FB" transform="translate(0,0)"/>
<path d="" fill="#A183F7" transform="translate(0,0)"/>
<path d="" fill="#9A7BFB" transform="translate(0,0)"/>
<path d="" fill="#9A7FF9" transform="translate(0,0)"/>
<path d="" fill="#997FF9" transform="translate(0,0)"/>
<path d="" fill="#9D80FB" transform="translate(0,0)"/>
<path d="" fill="#9C7FFD" transform="translate(0,0)"/>
<path d="" fill="#9D82FC" transform="translate(0,0)"/>
<path d="" fill="#9D82FE" transform="translate(0,0)"/>
<path d="" fill="#987CF9" transform="translate(0,0)"/>
<path d="" fill="#9B81FD" transform="translate(0,0)"/>
<path d="" fill="#9680F9" transform="translate(0,0)"/>
<path d="" fill="#9C7FFF" transform="translate(0,0)"/>
<path d="" fill="#A086F9" transform="translate(0,0)"/>
<path d="" fill="#9D7EFD" transform="translate(0,0)"/>
<path d="" fill="#A084F9" transform="translate(0,0)"/>
<path d="" fill="#9B81F8" transform="translate(0,0)"/>
<path d="" fill="#9980F7" transform="translate(0,0)"/>
<path d="" fill="#A085F9" transform="translate(0,0)"/>
<path d="" fill="#987DFB" transform="translate(0,0)"/>
<path d="" fill="#6A696B" transform="translate(0,0)"/>
<path d="" fill="#9F85FA" transform="translate(0,0)"/>
<path d="" fill="#9A80FA" transform="translate(0,0)"/>
<path d="" fill="#9A81F5" transform="translate(0,0)"/>
<path d="" fill="#A186F9" transform="translate(0,0)"/>
<path d="" fill="#A086F8" transform="translate(0,0)"/>
<path d="" fill="#9E82FB" transform="translate(0,0)"/>
<path d="" fill="#9C81FB" transform="translate(0,0)"/>
<path d="" fill="#9C84FA" transform="translate(0,0)"/>
<path d="" fill="#9B80F6" transform="translate(0,0)"/>
<path d="" fill="#9B81F9" transform="translate(0,0)"/>
<path d="" fill="#9F86F6" transform="translate(0,0)"/>
<path d="" fill="#9A7FF7" transform="translate(0,0)"/>
<path d="" fill="#9D83FA" transform="translate(0,0)"/>
<path d="" fill="#9C81F4" transform="translate(0,0)"/>
<path d="" fill="#9A81FF" transform="translate(0,0)"/>
<path d="" fill="#997FF9" transform="translate(0,0)"/>
<path d="" fill="#9A80FD" transform="translate(0,0)"/>
<path d="" fill="#967BFB" transform="translate(0,0)"/>
<path d="" fill="#9E84F0" transform="translate(0,0)"/>
<path d="" fill="#9F83F7" transform="translate(0,0)"/>
<path d="" fill="#9981FA" transform="translate(0,0)"/>
<path d="" fill="#9C82FA" transform="translate(0,0)"/>
<path d="" fill="#A186F6" transform="translate(0,0)"/>
<path d="" fill="#9B84F2" transform="translate(0,0)"/>
<path d="" fill="#9A7EF9" transform="translate(0,0)"/>
<path d="" fill="#987FF9" transform="translate(0,0)"/>
<path d="" fill="#9C85F9" transform="translate(0,0)"/>
<path d="" fill="#9C85F9" transform="translate(0,0)"/>
<path d="" fill="#9D83F9" transform="translate(0,0)"/>
<path d="" fill="#9B84F2" transform="translate(0,0)"/>
<path d="" fill="#9A80FA" transform="translate(0,0)"/>
<path d="" fill="#9C81F8" transform="translate(0,0)"/>
<path d="" fill="#9A7DFA" transform="translate(0,0)"/>
<path d="" fill="#987EF8" transform="translate(0,0)"/>
<path d="" fill="#9A7FFB" transform="translate(0,0)"/>
<path d="" fill="#9F85F2" transform="translate(0,0)"/>
<path d="" fill="#9A7FFA" transform="translate(0,0)"/>
<path d="" fill="#9A80FE" transform="translate(0,0)"/>
<path d="" fill="#9D82FD" transform="translate(0,0)"/>
<path d="" fill="#9C7FFA" transform="translate(0,0)"/>
<path d="" fill="#9A80FD" transform="translate(0,0)"/>
<path d="" fill="#997EFC" transform="translate(0,0)"/>
<path d="" fill="#9982FA" transform="translate(0,0)"/>
<path d="" fill="#9C81FB" transform="translate(0,0)"/>
<path d="" fill="#9A83FB" transform="translate(0,0)"/>
<path d="" fill="#9A80FB" transform="translate(0,0)"/>
<path d="" fill="#9E86F8" transform="translate(0,0)"/>
<path d="" fill="#9E86FD" transform="translate(0,0)"/>
<path d="" fill="#9D84F3" transform="translate(0,0)"/>
<path d="" fill="#9C82FD" transform="translate(0,0)"/>
<path d="" fill="#9B80F9" transform="translate(0,0)"/>
<path d="" fill="#9D82F2" transform="translate(0,0)"/>
<path d="" fill="#9C7EFC" transform="translate(0,0)"/>
<path d="" fill="#9D83F3" transform="translate(0,0)"/>
<path d="" fill="#9B81F9" transform="translate(0,0)"/>
<path d="" fill="#9981F6" transform="translate(0,0)"/>
<path d="" fill="#9D84F8" transform="translate(0,0)"/>
<path d="" fill="#9C83F7" transform="translate(0,0)"/>
<path d="" fill="#9E82F7" transform="translate(0,0)"/>
<path d="" fill="#9F82F6" transform="translate(0,0)"/>
<path d="" fill="#9A81F7" transform="translate(0,0)"/>
<path d="" fill="#9A7FF9" transform="translate(0,0)"/>
<path d="" fill="#997FFA" transform="translate(0,0)"/>
<path d="" fill="#9A81FB" transform="translate(0,0)"/>
<path d="" fill="#9B80F9" transform="translate(0,0)"/>
<path d="" fill="#997EFC" transform="translate(0,0)"/>
<path d="" fill="#9880FD" transform="translate(0,0)"/>
<path d="" fill="#9B81FC" transform="translate(0,0)"/>
<path d="" fill="#987FF9" transform="translate(0,0)"/>
<path d="" fill="#9B80F9" transform="translate(0,0)"/>
<path d="" fill="#9A80F9" transform="translate(0,0)"/>
<path d="" fill="#9B82FA" transform="translate(0,0)"/>
<path d="" fill="#9B82F9" transform="translate(0,0)"/>
<path d="" fill="#9A81F9" transform="translate(0,0)"/>
<path d="" fill="#9C81FA" transform="translate(0,0)"/>
<path d="" fill="#9C85F9" transform="translate(0,0)"/>
<path d="" fill="#997DFF" transform="translate(0,0)"/>
<path d="" fill="#9A82FC" transform="translate(0,0)"/>
<path d="" fill="#997EFC" transform="translate(0,0)"/>
<path d="" fill="#997EFD" transform="translate(0,0)"/>
<path d="" fill="#9A83F6" transform="translate(0,0)"/>
<path d="" fill="#9A80FE" transform="translate(0,0)"/>
<path d="" fill="#9D81F7" transform="translate(0,0)"/>
<path d="" fill="#9D84F6" transform="translate(0,0)"/>
<path d="" fill="#9D81F6" transform="translate(0,0)"/>
<path d="" fill="#9A7EFD" transform="translate(0,0)"/>
<path d="" fill="#9A81FF" transform="translate(0,0)"/>
<path d="" fill="#9B7EFE" transform="translate(0,0)"/>
<path d="" fill="#9980FB" transform="translate(0,0)"/>
<path d="" fill="#9A80FE" transform="translate(0,0)"/>
<path d="" fill="#9C83F7" transform="translate(0,0)"/>
<path d="" fill="#9D85F9" transform="translate(0,0)"/>
<path d="" fill="#9D85F7" transform="translate(0,0)"/>
<path d="" fill="#A083F5" transform="translate(0,0)"/>
<path d="" fill="#9884EF" transform="translate(0,0)"/>
<path d="" fill="#9B83EA" transform="translate(0,0)"/>
<path d="" fill="#9B84EA" transform="translate(0,0)"/>
<path d="" fill="#9880EF" transform="translate(0,0)"/>
<path d="" fill="#9881F4" transform="translate(0,0)"/>
<path d="" fill="#9B85ED" transform="translate(0,0)"/>
<path d="" fill="#9686C6" transform="translate(0,0)"/>
<path d="" fill="#8F86B3" transform="translate(0,0)"/>
<path d="" fill="#838186" transform="translate(0,0)"/>
<path d="" fill="#61605F" transform="translate(0,0)"/>
<path d="" fill="#6C6D6D" transform="translate(0,0)"/>
<path d="" fill="#6F6E71" transform="translate(0,0)"/>
<path d="" fill="#747274" transform="translate(0,0)"/>
</svg>
